PathFileType	4	(X/Y/Z)	D:\TRACE\spot_10-12-23\spot_arm_motion_3_3-platform.trc
DataRate	CameraRate	NumFrames	NumMarkers	Units	OrigDataRate	OrigDataStartFrame	OrigNumFrames
100.00	100.00	      61	5	mm	100.00	876	      7000
Frame#	Time	Left_Front			Right_Front			Left_Aft			Right_Aft			Post			
		X1	Y1	Z1	X2	Y2	Z2	X3	Y3	Z3	X4	Y4	Z4	X5	Y5	Z5	

876	8.750	-790.01349	-20.86485	-647.44220	782.56158	-16.17172	-640.51282	-707.05811	23.61606	489.64169	710.37970	31.56517	575.61865	-7.46009	703.50769	-995.30096	
877	8.760	-789.99457	-21.00314	-647.37732	782.59344	-16.28331	-640.58679	-707.03412	23.77162	489.58640	710.43732	31.74836	575.52399	-7.24485	703.22101	-995.50763	
878	8.770	-789.80200	-21.30560	-647.55597	782.66687	-16.42299	-640.68079	-707.01538	23.89565	489.49701	710.51636	31.92133	575.49347	-6.99963	702.87872	-995.71033	
879	8.780	-789.64905	-21.56710	-647.55231	782.73706	-16.60013	-640.74237	-706.98822	24.03516	489.43655	710.47754	32.04679	575.46259	-6.88723	702.48633	-995.94489	
880	8.790	-789.57898	-21.71988	-647.56879	782.95123	-16.73195	-640.68719	-706.92236	24.19164	489.41415	710.53955	32.17600	575.43359	-6.76353	702.15479	-996.00104	
881	8.800	-789.46783	-21.90896	-647.61072	783.11621	-16.88005	-640.69165	-706.78253	24.31390	489.34613	710.61316	32.30975	575.39307	-6.65867	701.84949	-996.18237	
882	8.810	-789.42188	-22.04183	-647.64917	783.14069	-17.03763	-640.78839	-706.72052	24.46968	489.33212	710.65717	32.39120	575.30945	-6.50877	701.55273	-996.32758	
883	8.820	-789.31445	-22.23150	-647.72266	783.29413	-17.21837	-640.82611	-706.59198	24.56883	489.30048	710.75269	32.54893	575.25763	-6.57580	701.33557	-996.56256	
884	8.830	-789.31726	-22.30130	-647.70386	783.56433	-17.44934	-640.74567	-706.52808	24.62435	489.28098	710.77338	32.67046	575.20459	-6.52931	701.09943	-996.65997	
885	8.840	-789.29297	-22.51064	-647.72577	783.61066	-17.64513	-640.83533	-706.38782	24.72426	489.29855	710.81000	32.76470	575.12744	-6.47392	700.97729	-996.91003	
886	8.850	-789.27643	-22.61661	-647.76367	783.60919	-17.81764	-640.91644	-706.26807	24.83482	489.28995	710.84650	32.89376	575.07300	-6.34408	700.74780	-997.15308	
887	8.860	-789.12097	-22.83774	-647.84314	783.70215	-17.98780	-640.93829	-706.16602	24.87829	489.25385	710.96863	33.00829	575.02423	-3.73206	699.22589	-998.46771	
888	8.870	-789.00067	-23.04803	-647.90027	783.71649	-18.15398	-640.93976	-706.10101	24.97430	489.26535	711.07336	33.14597	574.96246	-6.07701	700.26385	-997.71667	
889	8.880	-788.83569	-23.39185	-647.90875	783.77448	-18.33519	-640.91479	-706.01105	25.04316	489.25906	711.16260	33.25753	574.89594	-6.07038	700.13605	-997.89398	
890	8.890	-788.71167	-23.62841	-647.94318	783.85297	-18.54392	-640.85425	-706.04260	25.11073	489.24072	711.24670	33.34587	574.81372	-6.02447	700.03412	-997.97986	
891	8.900	-788.62830	-23.82658	-647.97241	783.77136	-18.67585	-640.97577	-705.97723	25.18907	489.16748	711.37189	33.48813	574.74664	-5.93255	699.83093	-998.04547	
892	8.910	-788.59686	-23.95614	-648.01495	783.94849	-18.78372	-640.87280	-705.95093	25.25896	489.15714	711.37689	33.52519	574.64722	-5.72455	699.61359	-998.23151	
893	8.920	-788.68652	-23.75564	-648.05847	783.92804	-18.92629	-640.86090	-705.96265	25.29333	489.09824	711.41644	33.56924	574.61115	-5.95477	699.52844	-998.11798	
894	8.930	-788.65704	-23.86946	-648.06915	783.99023	-19.01226	-640.89215	-705.92438	25.33503	489.06647	711.41650	33.62543	574.56537	-5.66781	699.28912	-998.42383	
895	8.940	-788.57141	-23.96385	-648.12231	784.03601	-19.15837	-640.90204	-705.89679	25.43583	489.04529	711.48169	33.66854	574.54297	-5.60988	699.09369	-998.46075	
896	8.950	-788.57739	-24.01487	-648.10535	783.96027	-19.20316	-641.02502	-705.91565	25.47709	489.01852	711.49774	33.73427	574.51422	-5.62090	698.97778	-998.48889	
897	8.960	-788.46692	-24.16112	-648.13477	783.98639	-19.28402	-641.04004	-705.85083	25.51817	488.96729	711.50104	33.75618	574.46472	-5.67484	698.80133	-998.59143	
898	8.970	-788.48438	-24.17171	-648.13483	784.16870	-19.29946	-640.96234	-705.78540	25.57062	488.93823	711.59796	33.77913	574.43860	-5.56032	698.62091	-998.69470	
899	8.980	-788.37793	-24.28349	-648.14838	784.06476	-19.33074	-641.07062	-705.74329	25.58682	488.88031	711.61536	33.85373	574.41742	-5.49179	698.50140	-998.80457	
900	8.990	-788.44470	-24.25367	-648.15527	784.18933	-19.35237	-641.00653	-705.65527	25.63431	488.84668	711.63623	33.86532	574.39832	-2.61899	697.20093	-1000.03925	
901	9.000	-788.35089	-24.29672	-648.17761	784.08820	-19.37646	-641.10461	-705.62531	25.73113	488.91373	711.72510	33.94958	574.38757	-5.51608	698.32404	-998.99707	
902	9.010	-788.31458	-24.38807	-648.18030	784.11719	-19.40721	-641.12408	-705.58179	25.75292	488.87640	711.77539	34.00111	574.40466	-5.40535	698.26465	-999.07715	
903	9.020	-788.30896	-24.40023	-648.13086	784.31433	-19.46879	-641.04266	-705.45172	25.73524	488.88321	711.79596	33.99723	574.38678	-5.26558	698.19434	-999.13867	
904	9.030	-788.21246	-24.44334	-648.14404	784.35944	-19.49699	-641.07556	-705.40253	25.76011	488.91513	711.82916	34.02177	574.35974	-5.18739	698.09796	-999.19354	
905	9.040	-788.20966	-24.51296	-648.16644	784.24640	-19.46422	-641.16785	-705.39301	25.77772	488.82184	711.88385	34.09607	574.36859	-5.14596	698.02112	-999.22656	
906	9.050	-788.21820	-24.49576	-648.13495	784.25476	-19.50021	-641.16260	-705.36700	25.82468	488.85669	711.93286	34.09694	574.35907	-5.72853	698.27423	-999.44635	
907	9.060	-788.16022	-24.56071	-648.18347	784.27557	-19.53035	-641.19574	-705.31616	25.81068	488.82925	711.95477	34.14366	574.36334	-5.51926	698.14746	-999.42126	
908	9.070	-788.13672	-24.56910	-648.15906	784.28314	-19.54528	-641.19958	-705.24713	25.87875	488.89056	711.97540	34.15343	574.34723	-5.00487	697.88477	-999.29358	
909	9.080	-788.09100	-24.58161	-648.11755	784.34015	-19.55941	-641.22137	-705.23572	25.82884	488.79932	712.04138	34.18557	574.32434	-4.95424	697.85559	-999.31842	
910	9.090	-788.09912	-24.59319	-648.15741	784.38977	-19.59937	-641.21808	-705.15631	25.89101	488.84042	712.03851	34.17017	574.31213	-4.90233	697.79364	-999.37384	
911	9.100	-788.06555	-24.57881	-648.14020	784.39142	-19.62121	-641.23566	-705.20209	25.92075	488.69327	712.08881	34.21724	574.26917	-4.91025	697.81744	-999.35419	
912	9.110	-788.03558	-24.57038	-648.17096	784.45245	-19.63428	-641.22357	-705.12335	25.91341	488.82986	712.11536	34.24271	574.31354	-4.85657	697.80530	-999.42249	
913	9.120	-787.96808	-24.68869	-648.14063	784.44476	-19.60928	-641.24884	-705.06335	25.92384	488.82303	712.17480	34.20708	574.27557	-4.86656	697.81128	-999.48645	
914	9.130	-787.94293	-24.67010	-648.14355	784.58655	-19.65116	-641.17444	-705.01685	25.87896	488.84451	712.18475	34.23314	574.28668	-4.89537	697.81647	-999.51599	
915	9.140	-787.91400	-24.65444	-648.11456	784.55267	-19.63684	-641.22760	-705.01532	25.88058	488.80814	712.08948	34.15364	574.26056	-4.86627	697.79803	-999.52527	
916	9.150	-787.12177	-25.25344	-648.55389	784.56842	-19.65556	-641.24286	-704.93665	25.87155	488.79086	712.19434	34.19827	574.24988	-4.83400	697.82355	-999.52356	
917	9.160	-787.78900	-24.68967	-648.11609	784.58740	-19.63758	-641.24896	-704.88507	25.87175	488.83228	712.18158	34.16371	574.24078	-4.80625	697.82806	-999.47748	
918	9.170	-787.83698	-24.65054	-648.08942	784.62769	-19.68988	-641.23022	-704.90558	25.90036	488.85007	712.24628	34.18314	574.25562	-4.79194	697.82544	-999.46674	
919	9.180	-787.74841	-24.72974	-648.08368	784.78125	-19.69415	-641.11359	-704.84930	25.88343	488.78506	712.25684	34.18589	574.25763	-4.72255	697.82489	-999.41907	
920	9.190	-787.74799	-24.70499	-648.08685	784.76160	-19.72237	-641.22870	-704.81116	25.88256	488.80276	712.23401	34.20804	574.27002	-4.66110	697.82056	-999.36737	
921	9.200	-786.95825	-25.27716	-648.55634	784.83008	-19.73933	-641.16034	-704.81122	25.89485	488.79773	712.32562	34.24100	574.27032	-4.64885	697.81097	-999.34601	
922	9.210	-787.91693	-24.63041	-647.96252	784.81970	-19.72980	-641.19171	-704.72742	25.87063	488.83316	712.36304	34.22485	574.26855	-4.67342	697.80481	-999.35822	
923	9.220	-787.96753	-24.49955	-647.82220	784.86420	-19.75786	-641.20844	-704.69891	25.88797	488.81647	712.38776	34.25364	574.28821	-4.63596	697.82684	-999.34290	
924	9.230	-787.89166	-24.61114	-647.90442	784.82794	-19.71290	-641.22198	-704.61072	25.84745	488.76282	712.40076	34.22778	574.28430	-4.60963	697.84259	-999.31781	
925	9.240	-787.89038	-24.58254	-647.91144	784.91943	-19.78871	-641.23730	-704.54700	25.82881	488.76715	712.40015	34.20052	574.26758	-4.58795	697.82819	-999.37170	
926	9.250	-787.73846	-24.63600	-647.92853	784.86841	-19.71583	-641.24054	-704.56195	25.86363	488.74164	712.47968	34.20781	574.25214	-4.53197	697.81842	-999.41272	
927	9.260	-787.77618	-24.58311	-647.91199	784.92920	-19.74261	-641.22351	-704.47382	25.89351	488.73608	712.50470	34.18301	574.24139	-4.47493	697.81976	-999.42511	
928	9.270	-787.67175	-24.60587	-647.90277	785.07208	-19.79362	-641.20111	-704.43701	25.89620	488.74030	712.66681	34.24415	574.24786	-4.46922	697.82764	-999.42712	
929	9.280	-787.66382	-24.59404	-647.85999	785.04431	-19.76131	-641.24084	-704.34882	25.88064	488.72073	712.60901	34.21843	574.24542	-4.48768	697.83136	-999.43530	
930	9.290	-787.55695	-24.62892	-647.97516	785.10632	-19.77419	-641.24475	-704.26001	25.83727	488.71252	712.72003	34.19529	574.23712	-4.35605	697.80341	-999.44855	
931	9.300	-787.47375	-24.65527	-647.97388	785.15387	-19.80569	-641.24146	-704.26599	25.91080	488.72910	712.77716	34.24692	574.26001	-4.33482	697.75854	-999.44910	
932	9.310	-787.35358	-24.73263	-648.00104	785.21716	-19.83412	-641.25574	-704.14465	25.84635	488.70200	712.83502	34.21187	574.24573	-4.26075	697.76312	-999.48804	
933	9.320	-787.23041	-24.73529	-648.04163	785.30206	-19.89238	-641.21570	-704.02246	25.86652	488.71481	712.94891	34.22261	574.25836	-4.14235	697.74524	-999.52081	
934	9.330	-787.11371	-24.81702	-648.08911	785.35815	-19.93971	-641.24762	-703.97357	25.86732	488.67349	713.09973	34.25195	574.22681	-4.07505	697.70245	-999.53058	
935	9.340	-786.93054	-24.89487	-648.15015	785.40912	-19.92498	-641.25299	-703.95416	25.87838	488.65567	713.13232	34.22859	574.23199	-4.06763	697.65076	-999.53516	
936	9.350	-786.78741	-25.01674	-648.19672	785.51074	-20.01852	-641.27258	-703.89716	25.88977	488.63620	713.21332	34.20435	574.22595	-3.93753	697.59094	-999.58441	
